<svg xmlns="http://www.w3.org/2000/svg" viewBox="0 0 390 844" fill="none">
  <rect width="390" height="844" fill="#F2EEE6"/>
  <rect x="28" y="40" width="50" height="5" rx="2.5" fill="#15120E" opacity="0.15"/>
  <rect x="312" y="38" width="50" height="8" rx="4" stroke="#15120E" stroke-width="1.5" fill="none"/>
  <rect x="326" y="40" width="18" height="4" rx="2" fill="#15120E" opacity="0.6"/>
  <circle cx="350" cy="42" r="2" fill="#4ADE80"/>
  <text x="28" y="100" font-family="system-ui, sans-serif" font-size="13" fill="#15120E" opacity="0.4" font-weight="500" letter-spacing="0.8">CAPACITAÇÃO</text>
  <text x="28" y="132" font-family="Georgia, serif" font-size="26" fill="#15120E" font-style="italic">Cursos</text>
  <text x="28" y="164" font-family="Georgia, serif" font-size="26" fill="#15120E" font-style="italic">Profissionalizantes</text>
  <rect x="28" y="198" width="334" height="130" rx="18" fill="#FFF" stroke="#15120E" stroke-width="1" opacity="0.06"/>
  <rect x="48" y="218" width="56" height="56" rx="14" fill="#FF4D2E" opacity="0.12"/>
  <text x="58" y="254" font-family="system-ui, sans-serif" font-size="22" fill="#FF4D2E" font-weight="700">01</text>
  <text x="120" y="234" font-family="system-ui, sans-serif" font-size="14" fill="#15120E" font-weight="500">Informática Básica</text>
  <text x="120" y="254" font-family="system-ui, sans-serif" font-size="12" fill="#15120E" opacity="0.35">40h — Iniciante</text>
  <rect x="120" y="270" width="180" height="6" rx="3" fill="#15120E" opacity="0.06"/>
  <rect x="120" y="270" width="130" height="6" rx="3" fill="#FF4D2E" opacity="0.7"/>
  <text x="300" y="278" font-family="system-ui, sans-serif" font-size="10" fill="#15120E" opacity="0.4">65%</text>
  <rect x="28" y="348" width="334" height="130" rx="18" fill="#FFF" stroke="#15120E" stroke-width="1" opacity="0.06"/>
  <rect x="48" y="368" width="56" height="56" rx="14" fill="#15120E" opacity="0.06"/>
  <text x="58" y="404" font-family="system-ui, sans-serif" font-size="22" fill="#15120E" font-weight="700" opacity="0.4">02</text>
  <text x="120" y="384" font-family="system-ui, sans-serif" font-size="14" fill="#15120E" font-weight="500">Empreendedorismo</text>
  <text x="120" y="404" font-family="system-ui, sans-serif" font-size="12" fill="#15120E" opacity="0.35">60h — Intermediário</text>
  <rect x="120" y="420" width="180" height="6" rx="3" fill="#15120E" opacity="0.06"/>
  <rect x="120" y="420" width="80" height="6" rx="3" fill="#4ADE80" opacity="0.7"/>
  <text x="294" y="428" font-family="system-ui, sans-serif" font-size="10" fill="#15120E" opacity="0.4">42%</text>
  <rect x="28" y="498" width="334" height="130" rx="18" fill="#FFF" stroke="#15120E" stroke-width="1" opacity="0.06"/>
  <rect x="48" y="518" width="56" height="56" rx="14" fill="#FF4D2E" opacity="0.06"/>
  <text x="58" y="554" font-family="system-ui, sans-serif" font-size="22" fill="#FF4D2E" font-weight="700" opacity="0.4">03</text>
  <text x="120" y="534" font-family="system-ui, sans-serif" font-size="14" fill="#15120E" font-weight="500">Marcenaria Criativa</text>
  <text x="120" y="554" font-family="system-ui, sans-serif" font-size="12" fill="#15120E" opacity="0.35">30h — Iniciante</text>
  <rect x="120" y="570" width="180" height="6" rx="3" fill="#15120E" opacity="0.06"/>
  <rect x="120" y="570" width="180" height="6" rx="3" fill="#FF4D2E" opacity="0.7"/>
  <text x="300" y="578" font-family="system-ui, sans-serif" font-size="10" fill="#15120E" opacity="0.4">100%</text>
  <text x="28" y="680" font-family="system-ui, sans-serif" font-size="14" fill="#15120E" opacity="0.8" font-weight="500">Programas sociais disponíveis</text>
  <rect x="28" y="700" width="100" height="32" rx="16" fill="#FF4D2E" opacity="0.1"/>
  <text x="46" y="721" font-family="system-ui, sans-serif" font-size="11" fill="#FF4D2E" font-weight="500">Bolsa Família</text>
  <rect x="142" y="700" width="110" height="32" rx="16" fill="#15120E" opacity="0.04"/>
  <text x="152" y="721" font-family="system-ui, sans-serif" font-size="11" fill="#15120E" opacity="0.6">Minha Casa</text>
  <rect x="266" y="700" width="96" height="32" rx="16" fill="#4ADE80" opacity="0.08"/>
  <text x="276" y="721" font-family="system-ui, sans-serif" font-size="11" fill="#16A34A" font-weight="500">CadÚnico</text>
</svg>